<?xml version="1.0" encoding="UTF-8"?>
<svg width="111px" height="112px" viewBox="0 0 111 112" version="1.1" xmlns="http://www.w3.org/2000/svg" xmlns:xlink="http://www.w3.org/1999/xlink" xmlns:sketch="http://www.bohemiancoding.com/sketch/ns">
    <!-- Generator: Sketch 3.3.3 (12072) - http://www.bohemiancoding.com/sketch -->
    <title>logo</title>
    <desc>Created with Sketch.</desc>
    <defs></defs>
    <g id="Page-22" stroke="none" stroke-width="1" fill="none" fill-rule="evenodd" sketch:type="MSPage">
        <g id="brand-variations" sketch:type="MSLayerGroup" transform="translate(-307.000000, -328.000000)">
            <g id="Group-688" sketch:type="MSShapeGroup">
                <g id="logo" transform="translate(307.000000, 328.000000)">
                    <path d="M44.0811,24.9917 L51.8761,24.9917 L47.9681,31.7517 L44.0811,38.5057 L40.1751,31.7517 L36.2901,24.9917 L44.0811,24.9917 Z" id="Fill-683" fill="#222222"></path>
                    <path d="M29.8545,80.2251 L39.7135,63.1811 L21.6245,31.7511 L30.3385,31.7511 L44.0815,55.5421 L57.8255,31.7511 L66.5345,31.7511 L48.1125,63.7591 L48.0165,63.9021 L38.6315,80.2251 L29.8545,80.2251 Z" id="Fill-684" fill="#222222"></path>
                    <path d="M57.8291,72.6265 L76.5521,72.6265 L67.1841,56.4285 L57.8291,72.6265 Z M44.7331,80.2255 L63.1511,48.2095 L63.2491,48.0685 L72.6361,31.7515 L81.4111,31.7515 L71.5481,48.7885 L89.6361,80.2255 L44.7331,80.2255 Z" id="Fill-685" fill="#FFFFFF"></path>
                    <path d="M25.5654,103.3706 L8.2844,103.3706 L8.2844,8.6536 L79.9754,8.6536 L84.3994,0.9746 L8.2844,0.9746 L8.2844,0.9496 L0.5884,0.9496 L0.5884,0.9746 L0.5884,8.6536 L0.5884,103.3706 L0.5884,111.0236 L0.5884,111.0506 L21.1394,111.0506 L25.5654,103.3706 Z" id="Fill-686" fill="#222222"></path>
                    <path d="M102.9834,0.9497 L102.9834,0.9747 L90.5014,0.9747 L86.0834,8.6537 L102.9834,8.6537 L102.9834,103.3707 L31.6654,103.3707 L27.2394,111.0507 L110.6804,111.0507 L110.6804,111.0237 L110.6804,103.3707 L110.6804,8.6537 L110.6804,0.9747 L110.6804,0.9497 L102.9834,0.9497 Z" id="Fill-687" fill="#FFFFFF"></path>
                </g>
            </g>
        </g>
    </g>
</svg>